<?xml version="1.0" encoding="UTF-8"?>
<svg width="350px" height="472px" viewBox="0 0 350 472" version="1.1" xmlns="http://www.w3.org/2000/svg" xmlns:xlink="http://www.w3.org/1999/xlink">
    <!-- Generator: Sketch 52.4 (67378) - http://www.bohemiancoding.com/sketch -->
    <title>Group 3</title>
    <desc>Created with Sketch.</desc>
    <defs>
        <linearGradient x1="50%" y1="0%" x2="4.04483003%" y2="78.9146547%" id="linearGradient-1">
            <stop stop-color="#61C7FF" offset="0%"></stop>
            <stop stop-color="#5AB8EC" offset="100%"></stop>
        </linearGradient>
        <rect id="path-2" x="0" y="0" width="350" height="472"></rect>
        <polygon id="path-4" points="0 0 350 0 350 311.111111 0 311.111111"></polygon>
        <linearGradient x1="89.493232%" y1="26.4774527%" x2="12.0288057%" y2="68.5140292%" id="linearGradient-6">
            <stop stop-color="#81DCFF" offset="0%"></stop>
            <stop stop-color="#40ABE6" offset="100%"></stop>
        </linearGradient>
    </defs>
    <g id="Page-1" stroke="none" stroke-width="1" fill="none" fill-rule="evenodd">
        <g id="登录-copy" transform="translate(-125.000000, -151.000000)">
            <g id="1-启动页-iOS-拷贝-6" transform="translate(125.000000, 151.000000)">
                <g id="Group-3">
                    <mask id="mask-3" fill="white">
                        <use xlink:href="#path-2"></use>
                    </mask>
                    <use id="Mask" fill="url(#linearGradient-1)" xlink:href="#path-2"></use>
                    <g id="Path-4-+-Path-3-+-Path-2-Mask-Copy" opacity="0.699445199" transform="translate(0.000000, 1.000000)">
                        <mask id="mask-5" fill="white">
                            <use xlink:href="#path-4"></use>
                        </mask>
                        <g id="Mask"></g>
                        <ellipse id="Oval-3" fill="url(#linearGradient-6)" opacity="0.509114583" mask="url(#mask-5)" cx="43.0208333" cy="22.9112834" rx="119.340278" ry="118.415159"></ellipse>
                        <ellipse id="Oval-3-Copy" fill="url(#linearGradient-6)" opacity="0.509114583" mask="url(#mask-5)" transform="translate(348.044420, 211.737443) rotate(-42.000000) translate(-348.044420, -211.737443) " cx="348.04442" cy="211.737443" rx="90.1736111" ry="89.4745909"></ellipse>
                        <ellipse id="Oval-3-Copy-2" fill="url(#linearGradient-6)" opacity="0.277400362" mask="url(#mask-5)" transform="translate(313.911498, 12.425535) rotate(-108.000000) translate(-313.911498, -12.425535) " cx="313.911498" cy="12.4255346" rx="24.0119577" ry="23.8258185"></ellipse>
                    </g>
                    <ellipse id="Oval-16" fill="#FFFFFF" opacity="0.0832201087" cx="175.267094" cy="218.893162" rx="125.267094" ry="124.893162"></ellipse>
                    <circle id="Oval-16-Copy" fill="#FFFFFF" opacity="0.0832201087" cx="175.188034" cy="219.188034" r="109.188034"></circle>
                    <ellipse id="Oval-16-Copy-2" fill="#FFFFFF" opacity="0.0832201087" cx="175.482906" cy="219.108974" rx="93.482906" ry="93.1089744"></ellipse>
                    <g id="Group" transform="translate(93.000000, 158.000000)" stroke="#FFFFFF" stroke-width="2">
                        <ellipse id="Oval-17" cx="124.732118" cy="76.8298688" rx="19.4135592" ry="19.4505997"></ellipse>
                        <ellipse id="Oval-17-Copy-3" cx="78.6249149" cy="23.3407196" rx="19.4135592" ry="19.4505997"></ellipse>
                        <ellipse id="Oval-17-Copy-2" cx="124.974788" cy="82.9081812" rx="3.64004236" ry="3.64698744"></ellipse>
                        <ellipse id="Oval-17-Copy-4" cx="78.8675844" cy="29.419032" rx="3.64004236" ry="3.64698744"></ellipse>
                        <ellipse id="Oval-17-Copy-6" cx="25.4802965" cy="9.96843234" rx="3.64004236" ry="3.64698744"></ellipse>
                        <ellipse id="Oval-17-Copy-7" cx="122.062754" cy="3.64698744" rx="3.64004236" ry="3.64698744"></ellipse>
                        <ellipse id="Oval-17-Copy-9" cx="66.2487709" cy="98.468661" rx="3.64004236" ry="3.64698744"></ellipse>
                        <ellipse id="Oval-17-Copy-8" cx="119.636059" cy="36.2267419" rx="5.0960593" ry="5.10578242"></ellipse>
                        <ellipse id="Oval-17-Copy" cx="124.732118" cy="69.0496289" rx="8.73610166" ry="8.75276986"></ellipse>
                        <path d="M115.996016,68.9704299 C118.938852,69.7243819 121.10421,69.7243819 122.49209,68.9704299 C124.573911,67.8395019 124.80311,65.159509 126.404327,65.159509 C128.005545,65.159509 128.588455,68.9704299 132.982881,68.9704299" id="Path-68"></path>
                        <ellipse id="Oval-17-Copy" cx="78.6249149" cy="15.5604798" rx="8.73610166" ry="8.75276986"></ellipse>
                        <path d="M69.8888133,15.4812807 C72.8316486,16.2352328 74.9970066,16.2352328 76.3848871,15.4812807 C78.4667079,14.3503527 78.6959064,11.6703598 80.297124,11.6703598 C81.8983415,11.6703598 82.4812514,15.4812807 86.8756776,15.4812807" id="Path-68"></path>
                        <path d="M111.627966,90.7267203 C112.364035,82.110506 116.724776,77.8023988 124.710188,77.8023988 C132.695599,77.8023988 137.21499,82.110506 138.268361,90.7267203" id="Path-69"></path>
                        <path d="M65.5207624,37.2375711 C66.2568322,28.6213568 70.6175729,24.3132496 78.6029843,24.3132496 C86.5883958,24.3132496 91.107787,28.6213568 92.1611579,37.2375711" id="Path-69-Copy"></path>
                        <ellipse id="Oval-17-Copy-5" cx="39.7977964" cy="77.8023988" rx="14.0748304" ry="14.1016848"></ellipse>
                        <ellipse id="Oval-17-Copy" cx="39.7977964" cy="72.9397489" rx="6.30940675" ry="6.3214449"></ellipse>
                        <path d="M30.0910168,88.5002286 C30.6274103,82.3408721 33.8051971,79.2611938 39.6243772,79.2611938 C45.4435572,79.2611938 48.7369569,82.3408721 49.5045761,88.5002286" id="Path-69-Copy-2"></path>
                        <path d="M47.5632201,66.3214521 L67.8435336,39.8737294" id="Path-70"></path>
                        <path d="M92.6997454,37.9286694 L113.438447,61.2594433" id="Path-71"></path>
                        <polyline id="Path-72" points="59.3128783 25.6334747 40.1229711 25.6334747 27.6643219 12.6428898"></polyline>
                        <polyline id="Path-73" points="93.1850843 9.84491907 97.9373571 3.89011994 119.199023 3.89011994"></polyline>
                        <polyline id="Path-74" points="98.0384741 24.7995146 119.372784 24.7995146 119.372784 31.5328322"></polyline>
                        <polyline id="Path-75" points="39.7977964 91.9040836 39.7977964 98.421119 63.3444675 98.421119"></polyline>
                        <path d="M13.6748064,117.676128 L144.944555,117.676128" id="Path-76"></path>
                        <path d="M0.0853149406,117.676128 L7.62107733,117.676128" id="Path-76-Copy"></path>
                        <path d="M151.025738,117.676128 L164.307213,117.676128" id="Path-76-Copy-2"></path>
                    </g>
                    <circle id="Oval-18" fill="#FEFFDF" cx="98.7179487" cy="157.303419" r="4.48717949"></circle>
                    <circle id="Oval-18-Copy" fill="#FEFFDF" cx="48.6111111" cy="190.957265" r="2.99145299"></circle>
                    <circle id="Oval-18-Copy-2" fill="#FEFFDF" cx="262.5" cy="114.675214" r="2.99145299"></circle>
                    <circle id="Oval-18-Copy-3" fill="#FEFFDF" cx="301.388889" cy="191.705128" r="3.73931624"></circle>
                    <g id="Group-2" transform="translate(263.247863, 154.311966)" fill="#FEFFDF">
                        <rect id="Rectangle-24" x="0" y="4.87736901" width="10.4700855" height="1.4632107" rx="0.731605351"></rect>
                        <path d="M0.58380629,4.8951049 L9.88627918,4.8951049 C10.2805384,4.8951049 10.6001486,5.21471514 10.6001486,5.60897436 L10.6001486,5.60897436 C10.6001486,6.00323358 10.2805384,6.32284382 9.88627918,6.32284382 L0.58380629,6.32284382 C0.189547072,6.32284382 -0.130063174,6.00323358 -0.130063174,5.60897436 L-0.130063174,5.60897436 C-0.130063174,5.21471514 0.189547072,4.8951049 0.58380629,4.8951049 Z" id="Rectangle-24-Copy" transform="translate(5.235043, 5.608974) rotate(-270.000000) translate(-5.235043, -5.608974) "></path>
                    </g>
                    <g id="Group-2-Copy" transform="translate(86.004274, 93.735043)" fill="#FEFFDF">
                        <path d="M0.480769231,2.88461538 L6.25,2.88461538 C6.51552151,2.88461538 6.73076923,3.0998631 6.73076923,3.36538462 L6.73076923,3.36538462 C6.73076923,3.63090613 6.51552151,3.84615385 6.25,3.84615385 L0.480769231,3.84615385 C0.215247716,3.84615385 3.25170073e-17,3.63090613 0,3.36538462 L0,3.36538462 C-3.25170073e-17,3.0998631 0.215247716,2.88461538 0.480769231,2.88461538 Z" id="Rectangle-24"></path>
                        <path d="M0.480769231,2.88461538 L6.25,2.88461538 C6.51552151,2.88461538 6.73076923,3.0998631 6.73076923,3.36538462 L6.73076923,3.36538462 C6.73076923,3.63090613 6.51552151,3.84615385 6.25,3.84615385 L0.480769231,3.84615385 C0.215247716,3.84615385 8.29012335e-12,3.63090613 8.29009084e-12,3.36538462 L8.29009084e-12,3.36538462 C8.29005832e-12,3.0998631 0.215247716,2.88461538 0.480769231,2.88461538 Z" id="Rectangle-24-Copy" transform="translate(3.365385, 3.365385) rotate(-270.000000) translate(-3.365385, -3.365385) "></path>
                    </g>
                </g>
            </g>
        </g>
    </g>
</svg>