<?xml version="1.0" encoding="UTF-8"?>
<svg width="30px" height="30px" viewBox="0 0 30 30" version="1.1" xmlns="http://www.w3.org/2000/svg" xmlns:xlink="http://www.w3.org/1999/xlink">
    <!-- Generator: Sketch 52.4 (67378) - http://www.bohemiancoding.com/sketch -->
    <title>Page 1 Copy 13</title>
    <desc>Created with Sketch.</desc>
    <defs>
        <linearGradient x1="65.5492287%" y1="0%" x2="50.4181524%" y2="97.310784%" id="linearGradient-1">
            <stop stop-color="#0E88CA" offset="0%"></stop>
            <stop stop-color="#3EBBFF" offset="100%"></stop>
        </linearGradient>
        <linearGradient x1="65.5492287%" y1="0%" x2="50.4181524%" y2="97.310784%" id="linearGradient-2">
            <stop stop-color="#1FAEFB" offset="0%"></stop>
            <stop stop-color="#4BBEFD" offset="100%"></stop>
        </linearGradient>
    </defs>
    <g id="Page-1" stroke="none" stroke-width="1" fill="none" fill-rule="evenodd">
        <g id="汇总数据1" transform="translate(-179.000000, -20.000000)">
            <g id="Page-1-Copy-13" transform="translate(179.000000, 20.000000)">
                <rect id="Rectangle-2-Copy-11" fill="#FFFFFF" x="0" y="0" width="30" height="30" rx="15"></rect>
                <path d="M5.9255719,27.7022876 C5.9255719,29.0255719 7.35808824,29.8526144 8.50408497,29.1910131 L13.9658497,26.0375817 L5.9255719,21.3955065 L5.9255719,27.7022876 Z" id="Fill-1" fill="url(#linearGradient-1)"></path>
                <path d="M23.2851307,18.1030392 C21.7238562,20.7182353 18.8626634,22.4675817 15.5933007,22.458268 C10.6652778,22.4442974 6.69665033,18.4639052 6.69673203,13.5358007 C6.69673203,8.60810458 10.6914216,4.61341503 15.6191176,4.61341503 C19.0427288,4.61341503 22.0155229,6.54176471 23.5115196,9.37142157 C23.9829248,10.2630065 25.0131536,10.7028758 25.9786765,10.4116993 L25.9788399,10.4116993 C27.2406863,10.0311438 27.8461601,8.59372549 27.2316993,7.42771242 C25.0156863,3.22313725 20.5837418,0.367990196 15.489134,0.417336601 C8.24575163,0.48751634 2.4619281,6.36308824 2.5001634,13.6067157 C2.53831699,20.8196242 8.39730392,26.655 15.6191176,26.655 C20.4155229,26.655 24.6102124,24.080817 26.8982026,20.2388235 C27.5732026,19.1053268 27.0446078,17.6371078 25.8029412,17.1914379 C24.8535948,16.8506699 23.8022059,17.2370261 23.2851307,18.1030392" id="Fill-8" fill="url(#linearGradient-2)"></path>
                <path d="M22.17149,13.8547386 C21.9639737,13.6302288 21.7185488,13.4530229 21.4375031,13.3244281 C21.6252482,13.2011438 21.7942841,13.0517157 21.9433037,12.8770425 C22.2633201,12.5018791 22.4276991,12.0269608 22.4320292,11.4651144 C22.4363593,10.8091503 22.18399,10.2273693 21.6819475,9.73586601 C21.1821926,9.24689542 20.4804769,8.99901961 19.5963266,8.99901961 C18.6978789,8.99901961 17.9697743,9.24607843 17.4321926,9.73333333 C16.9697743,10.1522876 16.7455096,10.6168301 16.6897907,11.0796569 C16.6312939,11.5655229 16.9772907,11.8616013 17.3358691,11.9285948 C17.7014737,11.9969771 18.1299867,11.7153595 18.2207547,11.3443627 C18.3843985,10.6750817 19.1102155,10.5094771 19.5287612,10.5094771 C19.9386469,10.5094771 20.242405,10.6125817 20.4574377,10.8246732 C20.6712449,11.0356209 20.7752482,11.2812908 20.7752482,11.5757353 C20.7752482,11.9066176 20.6624214,12.1696078 20.4305586,12.3796569 C20.1895456,12.5978758 19.8817024,12.7040033 19.4893005,12.7040033 L19.3986142,12.7040033 C18.9861142,12.7040033 18.6518005,13.038317 18.6518005,13.450817 C18.6518005,13.8632353 18.9861142,14.197549 19.3986142,14.197549 L19.5343985,14.197549 C20.027209,14.197549 20.4146273,14.3116013 20.6857057,14.5364379 C20.9429769,14.7499183 21.0680586,15.0357026 21.0680586,15.4102124 C21.0680586,15.769281 20.9376665,16.0511438 20.6696109,16.2721405 C20.3832547,16.5082516 20.017405,16.6229575 19.5513103,16.6229575 C19.1009018,16.6229575 18.729088,16.5159314 18.4463266,16.3049837 C18.1773724,16.1044118 18.018222,15.7412582 17.9930586,15.4397876 C17.9562939,14.998366 17.63399,14.6377451 17.1910161,14.6377451 C16.7480423,14.6377451 16.3896273,14.9968137 16.388892,15.4397876 C16.3876665,16.1785131 16.7535161,16.9670752 17.345673,17.439951 C17.9218168,17.9000817 18.6677318,18.133415 19.5625031,18.133415 C20.4405259,18.133415 21.1924867,17.8800654 21.7974704,17.3803105 C22.4203462,16.8659314 22.7361142,16.2125817 22.7361142,15.4383987 C22.7361142,14.7928922 22.5461632,14.260049 22.17149,13.8547386" id="Fill-1" fill="url(#linearGradient-2)"></path>
                <path d="M15.2270456,13.8547386 C15.0195292,13.6302288 14.7741044,13.4530229 14.4930586,13.3244281 C14.6808037,13.2011438 14.849758,13.0517157 14.9988593,12.8770425 C15.3188756,12.5018791 15.4832547,12.0269608 15.4875848,11.4651144 C15.4919148,10.8091503 15.2395456,10.2273693 14.7375031,9.73586601 C14.2377482,9.24689542 13.5360325,8.99901961 12.6518822,8.99901961 C11.7534344,8.99901961 11.0253299,9.24607843 10.4877482,9.73333333 C10.0253299,10.1522876 9.80106516,10.6168301 9.74534621,11.0796569 C9.68684947,11.5655229 10.0328462,11.8616013 10.3914246,11.9285948 C10.7570292,11.9969771 11.1855423,11.7153595 11.2763103,11.3443627 C11.439954,10.6750817 12.165771,10.5094771 12.5843168,10.5094771 C12.9942024,10.5094771 13.2979606,10.6125817 13.5129933,10.8246732 C13.7268005,11.0356209 13.8308037,11.2812908 13.8308037,11.5757353 C13.8308037,11.9066176 13.7179769,12.1696078 13.4861142,12.3796569 C13.2451011,12.5978758 12.937258,12.7040033 12.544856,12.7040033 L12.4541697,12.7040033 C12.0416697,12.7040033 11.707356,13.038317 11.707356,13.450817 C11.707356,13.8632353 12.0416697,14.197549 12.4541697,14.197549 L12.589954,14.197549 C13.0827645,14.197549 13.4701828,14.3116013 13.7412612,14.5364379 C13.9985325,14.7499183 14.1236142,15.0357026 14.1236142,15.4102124 C14.1236142,15.769281 13.993222,16.0511438 13.7251665,16.2721405 C13.4388103,16.5082516 13.0729606,16.6229575 12.6067841,16.6229575 C12.1564573,16.6229575 11.7846436,16.5159314 11.5018822,16.3049837 C11.2329279,16.1044118 11.0737776,15.7412582 11.0486142,15.4397876 C11.0118495,14.998366 10.6894639,14.6377451 10.2465717,14.6377451 C9.80359784,14.6377451 9.44518281,14.9968137 9.44444751,15.4397876 C9.44322202,16.1785131 9.8090717,16.9670752 10.4012286,17.439951 C10.9773724,17.9000817 11.7232874,18.133415 12.6180586,18.133415 C13.4960815,18.133415 14.2480423,17.8800654 14.8530259,17.3803105 C15.4759018,16.8659314 15.7916697,16.2125817 15.7916697,15.4383987 C15.7916697,14.7928922 15.6017188,14.260049 15.2270456,13.8547386" id="Fill-4" fill="url(#linearGradient-2)"></path>
            </g>
        </g>
    </g>
</svg>